<?xml version="1.0" encoding="UTF-8" standalone="no"?>
<!DOCTYPE svg PUBLIC "-//W3C//DTD SVG 1.1//EN"
 "http://www.w3.org/Graphics/SVG/1.1/DTD/svg11.dtd">
<!-- Generated by graphviz version 2.38.0 (20140413.2041)
 -->
<!-- Title: controllers_diagram Pages: 1 -->
<svg width="544pt" height="630pt"
 viewBox="0.00 0.00 544.00 630.00" xmlns="http://www.w3.org/2000/svg" xmlns:xlink="http://www.w3.org/1999/xlink">
<g id="graph0" class="graph" transform="scale(1 1) rotate(0) translate(242 405)">
<title>controllers_diagram</title>
<polygon fill="none" stroke="none" points="-242,225 -242,-405 302,-405 302,225 -242,225"/>
<!-- _diagram_info -->
<g id="node1" class="node"><title>_diagram_info</title>
<text text-anchor="start" x="110" y="157.4" font-family="Times,serif" font-size="13.00">Controllers diagram</text>
<text text-anchor="start" x="110" y="171.4" font-family="Times,serif" font-size="13.00">Date: Oct 22 2016 &#45; 00:13</text>
<text text-anchor="start" x="110" y="185.4" font-family="Times,serif" font-size="13.00">Migration version: 20161019181628</text>
<text text-anchor="start" x="110" y="199.4" font-family="Times,serif" font-size="13.00">Generated by RailRoady 1.5.2</text>
<text text-anchor="start" x="110" y="213.4" font-family="Times,serif" font-size="13.00">http://railroady.prestonlee.com</text>
</g>
<!-- ProvincesController -->
<g id="node2" class="node"><title>ProvincesController</title>
<path fill="none" stroke="black" d="M-56,118.5C-56,118.5 50,118.5 50,118.5 56,118.5 62,112.5 62,106.5 62,106.5 62,-82.5 62,-82.5 62,-88.5 56,-94.5 50,-94.5 50,-94.5 -56,-94.5 -56,-94.5 -62,-94.5 -68,-88.5 -68,-82.5 -68,-82.5 -68,106.5 -68,106.5 -68,112.5 -62,118.5 -56,118.5"/>
<text text-anchor="middle" x="-3" y="-79.3" font-family="Times,serif" font-size="14.00">ProvincesController</text>
<polyline fill="none" stroke="black" points="-68,-71.5 62,-71.5 "/>
<text text-anchor="start" x="-60" y="-56.3" font-family="Times,serif" font-size="14.00">create</text>
<text text-anchor="start" x="-60" y="-41.3" font-family="Times,serif" font-size="14.00">destroy</text>
<text text-anchor="start" x="-60" y="-26.3" font-family="Times,serif" font-size="14.00">edit</text>
<text text-anchor="start" x="-60" y="-11.3" font-family="Times,serif" font-size="14.00">index</text>
<text text-anchor="start" x="-60" y="3.7" font-family="Times,serif" font-size="14.00">new</text>
<text text-anchor="start" x="-60" y="18.7" font-family="Times,serif" font-size="14.00">show</text>
<text text-anchor="start" x="-60" y="33.7" font-family="Times,serif" font-size="14.00">update</text>
<polyline fill="none" stroke="black" points="-68,41.5 62,41.5 "/>
<polyline fill="none" stroke="black" points="-68,65.5 62,65.5 "/>
<text text-anchor="start" x="-60" y="80.7" font-family="Times,serif" font-size="14.00">_layout</text>
<text text-anchor="start" x="-60" y="95.7" font-family="Times,serif" font-size="14.00">province_params</text>
<text text-anchor="start" x="-60" y="110.7" font-family="Times,serif" font-size="14.00">set_province</text>
</g>
<!-- PhonesController -->
<g id="node3" class="node"><title>PhonesController</title>
<path fill="none" stroke="black" d="M-39,-136.5C-39,-136.5 53,-136.5 53,-136.5 59,-136.5 65,-142.5 65,-148.5 65,-148.5 65,-337.5 65,-337.5 65,-343.5 59,-349.5 53,-349.5 53,-349.5 -39,-349.5 -39,-349.5 -45,-349.5 -51,-343.5 -51,-337.5 -51,-337.5 -51,-148.5 -51,-148.5 -51,-142.5 -45,-136.5 -39,-136.5"/>
<text text-anchor="middle" x="7" y="-334.3" font-family="Times,serif" font-size="14.00">PhonesController</text>
<polyline fill="none" stroke="black" points="-51,-326.5 65,-326.5 "/>
<text text-anchor="start" x="-43" y="-311.3" font-family="Times,serif" font-size="14.00">create</text>
<text text-anchor="start" x="-43" y="-296.3" font-family="Times,serif" font-size="14.00">destroy</text>
<text text-anchor="start" x="-43" y="-281.3" font-family="Times,serif" font-size="14.00">edit</text>
<text text-anchor="start" x="-43" y="-266.3" font-family="Times,serif" font-size="14.00">index</text>
<text text-anchor="start" x="-43" y="-251.3" font-family="Times,serif" font-size="14.00">new</text>
<text text-anchor="start" x="-43" y="-236.3" font-family="Times,serif" font-size="14.00">show</text>
<text text-anchor="start" x="-43" y="-221.3" font-family="Times,serif" font-size="14.00">update</text>
<polyline fill="none" stroke="black" points="-51,-213.5 65,-213.5 "/>
<polyline fill="none" stroke="black" points="-51,-189.5 65,-189.5 "/>
<text text-anchor="start" x="-43" y="-174.3" font-family="Times,serif" font-size="14.00">_layout</text>
<text text-anchor="start" x="-43" y="-159.3" font-family="Times,serif" font-size="14.00">phone_params</text>
<text text-anchor="start" x="-43" y="-144.3" font-family="Times,serif" font-size="14.00">set_phone</text>
</g>
<!-- UsersController -->
<g id="node4" class="node"><title>UsersController</title>
<path fill="none" stroke="black" d="M164.5,-153.5C164.5,-153.5 247.5,-153.5 247.5,-153.5 253.5,-153.5 259.5,-159.5 259.5,-165.5 259.5,-165.5 259.5,-354.5 259.5,-354.5 259.5,-360.5 253.5,-366.5 247.5,-366.5 247.5,-366.5 164.5,-366.5 164.5,-366.5 158.5,-366.5 152.5,-360.5 152.5,-354.5 152.5,-354.5 152.5,-165.5 152.5,-165.5 152.5,-159.5 158.5,-153.5 164.5,-153.5"/>
<text text-anchor="middle" x="206" y="-351.3" font-family="Times,serif" font-size="14.00">UsersController</text>
<polyline fill="none" stroke="black" points="152.5,-343.5 259.5,-343.5 "/>
<text text-anchor="start" x="160.5" y="-328.3" font-family="Times,serif" font-size="14.00">create</text>
<text text-anchor="start" x="160.5" y="-313.3" font-family="Times,serif" font-size="14.00">destroy</text>
<text text-anchor="start" x="160.5" y="-298.3" font-family="Times,serif" font-size="14.00">edit</text>
<text text-anchor="start" x="160.5" y="-283.3" font-family="Times,serif" font-size="14.00">index</text>
<text text-anchor="start" x="160.5" y="-268.3" font-family="Times,serif" font-size="14.00">new</text>
<text text-anchor="start" x="160.5" y="-253.3" font-family="Times,serif" font-size="14.00">show</text>
<text text-anchor="start" x="160.5" y="-238.3" font-family="Times,serif" font-size="14.00">update</text>
<polyline fill="none" stroke="black" points="152.5,-230.5 259.5,-230.5 "/>
<polyline fill="none" stroke="black" points="152.5,-206.5 259.5,-206.5 "/>
<text text-anchor="start" x="160.5" y="-191.3" font-family="Times,serif" font-size="14.00">_layout</text>
<text text-anchor="start" x="160.5" y="-176.3" font-family="Times,serif" font-size="14.00">set_user</text>
<text text-anchor="start" x="160.5" y="-161.3" font-family="Times,serif" font-size="14.00">user_params</text>
</g>
<!-- ApplicationController -->
<g id="node5" class="node"><title>ApplicationController</title>
<path fill="none" stroke="black" d="M-226,-52C-226,-52 -108,-52 -108,-52 -102,-52 -96,-58 -96,-64 -96,-64 -96,-134 -96,-134 -96,-140 -102,-146 -108,-146 -108,-146 -226,-146 -226,-146 -232,-146 -238,-140 -238,-134 -238,-134 -238,-64 -238,-64 -238,-58 -232,-52 -226,-52"/>
<text text-anchor="middle" x="-167" y="-130.8" font-family="Times,serif" font-size="14.00">ApplicationController</text>
<polyline fill="none" stroke="black" points="-238,-123 -96,-123 "/>
<polyline fill="none" stroke="black" points="-238,-99 -96,-99 "/>
<polyline fill="none" stroke="black" points="-238,-75 -96,-75 "/>
<text text-anchor="start" x="-230" y="-59.8" font-family="Times,serif" font-size="14.00">_layout</text>
</g>
<!-- LandingController -->
<g id="node6" class="node"><title>LandingController</title>
<path fill="none" stroke="black" d="M-209.5,84C-209.5,84 -112.5,84 -112.5,84 -106.5,84 -100.5,78 -100.5,72 -100.5,72 -100.5,-12 -100.5,-12 -100.5,-18 -106.5,-24 -112.5,-24 -112.5,-24 -209.5,-24 -209.5,-24 -215.5,-24 -221.5,-18 -221.5,-12 -221.5,-12 -221.5,72 -221.5,72 -221.5,78 -215.5,84 -209.5,84"/>
<text text-anchor="middle" x="-161" y="-8.8" font-family="Times,serif" font-size="14.00">LandingController</text>
<polyline fill="none" stroke="black" points="-221.5,-1 -100.5,-1 "/>
<text text-anchor="start" x="-213.5" y="14.2" font-family="Times,serif" font-size="14.00">adios</text>
<text text-anchor="start" x="-213.5" y="29.2" font-family="Times,serif" font-size="14.00">bienvenido</text>
<polyline fill="none" stroke="black" points="-221.5,37 -100.5,37 "/>
<polyline fill="none" stroke="black" points="-221.5,61 -100.5,61 "/>
<text text-anchor="start" x="-213.5" y="76.2" font-family="Times,serif" font-size="14.00">_layout</text>
</g>
<!-- CountriesController -->
<g id="node7" class="node"><title>CountriesController</title>
<path fill="none" stroke="black" d="M114,101.5C114,101.5 220,101.5 220,101.5 226,101.5 232,95.5 232,89.5 232,89.5 232,-99.5 232,-99.5 232,-105.5 226,-111.5 220,-111.5 220,-111.5 114,-111.5 114,-111.5 108,-111.5 102,-105.5 102,-99.5 102,-99.5 102,89.5 102,89.5 102,95.5 108,101.5 114,101.5"/>
<text text-anchor="middle" x="167" y="-96.3" font-family="Times,serif" font-size="14.00">CountriesController</text>
<polyline fill="none" stroke="black" points="102,-88.5 232,-88.5 "/>
<text text-anchor="start" x="110" y="-73.3" font-family="Times,serif" font-size="14.00">create</text>
<text text-anchor="start" x="110" y="-58.3" font-family="Times,serif" font-size="14.00">destroy</text>
<text text-anchor="start" x="110" y="-43.3" font-family="Times,serif" font-size="14.00">edit</text>
<text text-anchor="start" x="110" y="-28.3" font-family="Times,serif" font-size="14.00">index</text>
<text text-anchor="start" x="110" y="-13.3" font-family="Times,serif" font-size="14.00">new</text>
<text text-anchor="start" x="110" y="1.7" font-family="Times,serif" font-size="14.00">show</text>
<text text-anchor="start" x="110" y="16.7" font-family="Times,serif" font-size="14.00">update</text>
<polyline fill="none" stroke="black" points="102,24.5 232,24.5 "/>
<polyline fill="none" stroke="black" points="102,48.5 232,48.5 "/>
<text text-anchor="start" x="110" y="63.7" font-family="Times,serif" font-size="14.00">_layout</text>
<text text-anchor="start" x="110" y="78.7" font-family="Times,serif" font-size="14.00">country_params</text>
<text text-anchor="start" x="110" y="93.7" font-family="Times,serif" font-size="14.00">set_country</text>
</g>
<!-- TypesController -->
<g id="node8" class="node"><title>TypesController</title>
<path fill="none" stroke="black" d="M-175,-187.5C-175,-187.5 -91,-187.5 -91,-187.5 -85,-187.5 -79,-193.5 -79,-199.5 -79,-199.5 -79,-388.5 -79,-388.5 -79,-394.5 -85,-400.5 -91,-400.5 -91,-400.5 -175,-400.5 -175,-400.5 -181,-400.5 -187,-394.5 -187,-388.5 -187,-388.5 -187,-199.5 -187,-199.5 -187,-193.5 -181,-187.5 -175,-187.5"/>
<text text-anchor="middle" x="-133" y="-385.3" font-family="Times,serif" font-size="14.00">TypesController</text>
<polyline fill="none" stroke="black" points="-187,-377.5 -79,-377.5 "/>
<text text-anchor="start" x="-179" y="-362.3" font-family="Times,serif" font-size="14.00">create</text>
<text text-anchor="start" x="-179" y="-347.3" font-family="Times,serif" font-size="14.00">destroy</text>
<text text-anchor="start" x="-179" y="-332.3" font-family="Times,serif" font-size="14.00">edit</text>
<text text-anchor="start" x="-179" y="-317.3" font-family="Times,serif" font-size="14.00">index</text>
<text text-anchor="start" x="-179" y="-302.3" font-family="Times,serif" font-size="14.00">new</text>
<text text-anchor="start" x="-179" y="-287.3" font-family="Times,serif" font-size="14.00">show</text>
<text text-anchor="start" x="-179" y="-272.3" font-family="Times,serif" font-size="14.00">update</text>
<polyline fill="none" stroke="black" points="-187,-264.5 -79,-264.5 "/>
<polyline fill="none" stroke="black" points="-187,-240.5 -79,-240.5 "/>
<text text-anchor="start" x="-179" y="-225.3" font-family="Times,serif" font-size="14.00">_layout</text>
<text text-anchor="start" x="-179" y="-210.3" font-family="Times,serif" font-size="14.00">set_type</text>
<text text-anchor="start" x="-179" y="-195.3" font-family="Times,serif" font-size="14.00">type_params</text>
</g>
</g>
</svg>
