<?xml version="1.0" encoding="UTF-8" standalone="no"?>
<!DOCTYPE svg PUBLIC "-//W3C//DTD SVG 1.1//EN"
 "http://www.w3.org/Graphics/SVG/1.1/DTD/svg11.dtd">
<!-- Generated by graphviz version 2.38.0 (20140413.2041)
 -->
<!-- Title: models_diagram Pages: 1 -->
<svg width="480pt" height="302pt"
 viewBox="0.00 0.00 479.94 302.00" xmlns="http://www.w3.org/2000/svg" xmlns:xlink="http://www.w3.org/1999/xlink">
<g id="graph0" class="graph" transform="scale(1 1) rotate(0) translate(4 298)">
<title>models_diagram</title>
<polygon fill="none" stroke="none" points="-4,4 -4,-298 475.943,-298 475.943,4 -4,4"/>
<!-- _diagram_info -->
<g id="node1" class="node"><title>_diagram_info</title>
<text text-anchor="start" x="8" y="-279.6" font-family="Times,serif" font-size="13.00">Models diagram</text>
<text text-anchor="start" x="8" y="-265.6" font-family="Times,serif" font-size="13.00">Date: Oct 22 2016 &#45; 00:13</text>
<text text-anchor="start" x="8" y="-251.6" font-family="Times,serif" font-size="13.00">Migration version: 20161019181628</text>
<text text-anchor="start" x="8" y="-237.6" font-family="Times,serif" font-size="13.00">Generated by RailRoady 1.5.2</text>
<text text-anchor="start" x="8" y="-223.6" font-family="Times,serif" font-size="13.00">http://railroady.prestonlee.com</text>
</g>
<!-- Country -->
<g id="node2" class="node"><title>Country</title>
<ellipse fill="none" stroke="black" cx="254" cy="-255" rx="40.0939" ry="18"/>
<text text-anchor="middle" x="254" y="-251.3" font-family="Times,serif" font-size="14.00">Country</text>
</g>
<!-- Province -->
<g id="node7" class="node"><title>Province</title>
<ellipse fill="none" stroke="black" cx="254" cy="-162" rx="42.7926" ry="18"/>
<text text-anchor="middle" x="254" y="-158.3" font-family="Times,serif" font-size="14.00">Province</text>
</g>
<!-- Country&#45;&gt;Province -->
<g id="edge1" class="edge"><title>Country&#45;&gt;Province</title>
<path fill="none" stroke="#8e6604" d="M254,-228.729C254,-216.725 254,-202.362 254,-190.129"/>
<ellipse fill="none" stroke="#8e6604" cx="254" cy="-232.884" rx="4" ry="4"/>
<polygon fill="#8e6604" stroke="#8e6604" points="254,-190.04 258.5,-180.04 254,-185.04 254,-180.04 254,-180.04 254,-180.04 254,-185.04 249.5,-180.04 254,-190.04 254,-190.04"/>
</g>
<!-- Type -->
<g id="node3" class="node"><title>Type</title>
<ellipse fill="none" stroke="black" cx="329" cy="-90" rx="28.6953" ry="18"/>
<text text-anchor="middle" x="329" y="-86.3" font-family="Times,serif" font-size="14.00">Type</text>
</g>
<!-- Phone -->
<g id="node4" class="node"><title>Phone</title>
<ellipse fill="none" stroke="black" cx="291" cy="-18" rx="33.5952" ry="18"/>
<text text-anchor="middle" x="291" y="-14.3" font-family="Times,serif" font-size="14.00">Phone</text>
</g>
<!-- Type&#45;&gt;Phone -->
<g id="edge2" class="edge"><title>Type&#45;&gt;Phone</title>
<path fill="none" stroke="#aaa6a1" d="M316.289,-65.5853C312.626,-58.837 308.611,-51.441 304.88,-44.5692"/>
<ellipse fill="none" stroke="#aaa6a1" cx="318.278" cy="-69.2492" rx="4.00002" ry="4.00002"/>
<polygon fill="#aaa6a1" stroke="#aaa6a1" points="304.801,-44.4219 303.984,-33.4865 302.415,-40.0277 300.03,-35.6334 300.03,-35.6334 300.03,-35.6334 302.415,-40.0277 296.075,-37.7803 304.801,-44.4219 304.801,-44.4219"/>
</g>
<!-- User -->
<g id="node5" class="node"><title>User</title>
<ellipse fill="none" stroke="black" cx="254" cy="-90" rx="27.8951" ry="18"/>
<text text-anchor="middle" x="254" y="-86.3" font-family="Times,serif" font-size="14.00">User</text>
</g>
<!-- User&#45;&gt;Phone -->
<g id="edge3" class="edge"><title>User&#45;&gt;Phone</title>
<path fill="none" stroke="#64d792" d="M266.376,-65.5853C269.943,-58.837 273.853,-51.441 277.485,-44.5692"/>
<ellipse fill="none" stroke="#64d792" cx="264.451" cy="-69.2283" rx="4.00002" ry="4.00002"/>
<polygon fill="#64d792" stroke="#64d792" points="277.535,-44.4744 286.186,-37.7363 279.871,-40.0539 282.208,-35.6334 282.208,-35.6334 282.208,-35.6334 279.871,-40.0539 278.23,-33.5305 277.535,-44.4744 277.535,-44.4744"/>
</g>
<!-- ApplicationRecord -->
<g id="node6" class="node"><title>ApplicationRecord</title>
<ellipse fill="none" stroke="black" cx="392" cy="-255" rx="79.8859" ry="18"/>
<text text-anchor="middle" x="392" y="-251.3" font-family="Times,serif" font-size="14.00">ApplicationRecord</text>
</g>
<!-- Province&#45;&gt;User -->
<g id="edge4" class="edge"><title>Province&#45;&gt;User</title>
<path fill="none" stroke="#65731b" d="M254,-135.64C254,-130.063 254,-124.132 254,-118.476"/>
<ellipse fill="none" stroke="#65731b" cx="254" cy="-139.697" rx="4" ry="4"/>
<polygon fill="#65731b" stroke="#65731b" points="254,-118.104 258.5,-108.104 254,-113.104 254,-108.104 254,-108.104 254,-108.104 254,-113.104 249.5,-108.104 254,-118.104 254,-118.104"/>
</g>
</g>
</svg>
