<?xml version="1.0" encoding="UTF-8" standalone="no"?>
<!DOCTYPE svg PUBLIC "-//W3C//DTD SVG 1.1//EN"
 "http://www.w3.org/Graphics/SVG/1.1/DTD/svg11.dtd">
<!-- Generated by graphviz version 2.38.0 (20140413.2041)
 -->
<!-- Title: models_diagram Pages: 1 -->
<svg width="532pt" height="619pt"
 viewBox="0.00 0.00 531.94 619.00" xmlns="http://www.w3.org/2000/svg" xmlns:xlink="http://www.w3.org/1999/xlink">
<g id="graph0" class="graph" transform="scale(1 1) rotate(0) translate(4 615)">
<title>models_diagram</title>
<polygon fill="none" stroke="none" points="-4,4 -4,-615 527.943,-615 527.943,4 -4,4"/>
<!-- _diagram_info -->
<g id="node1" class="node"><title>_diagram_info</title>
<text text-anchor="start" x="8" y="-589.6" font-family="Times,serif" font-size="13.00">Models diagram</text>
<text text-anchor="start" x="8" y="-575.6" font-family="Times,serif" font-size="13.00">Date: Oct 22 2016 &#45; 00:13</text>
<text text-anchor="start" x="8" y="-561.6" font-family="Times,serif" font-size="13.00">Migration version: 20161019181628</text>
<text text-anchor="start" x="8" y="-547.6" font-family="Times,serif" font-size="13.00">Generated by RailRoady 1.5.2</text>
<text text-anchor="start" x="8" y="-533.6" font-family="Times,serif" font-size="13.00">http://railroady.prestonlee.com</text>
</g>
<!-- Country -->
<g id="node2" class="node"><title>Country</title>
<path fill="none" stroke="black" d="M226,-519.5C226,-519.5 334,-519.5 334,-519.5 340,-519.5 346,-525.5 346,-531.5 346,-531.5 346,-598.5 346,-598.5 346,-604.5 340,-610.5 334,-610.5 334,-610.5 226,-610.5 226,-610.5 220,-610.5 214,-604.5 214,-598.5 214,-598.5 214,-531.5 214,-531.5 214,-525.5 220,-519.5 226,-519.5"/>
<text text-anchor="middle" x="280" y="-595.3" font-family="Times,serif" font-size="14.00">Country</text>
<polyline fill="none" stroke="black" points="214,-587.5 346,-587.5 "/>
<text text-anchor="start" x="222" y="-572.3" font-family="Times,serif" font-size="14.00">id :INTEGER</text>
<text text-anchor="start" x="222" y="-557.3" font-family="Times,serif" font-size="14.00">pais :varchar</text>
<text text-anchor="start" x="222" y="-542.3" font-family="Times,serif" font-size="14.00">created_at :datetime</text>
<text text-anchor="start" x="222" y="-527.3" font-family="Times,serif" font-size="14.00">updated_at :datetime</text>
</g>
<!-- Province -->
<g id="node7" class="node"><title>Province</title>
<path fill="none" stroke="black" d="M226,-376.5C226,-376.5 334,-376.5 334,-376.5 340,-376.5 346,-382.5 346,-388.5 346,-388.5 346,-470.5 346,-470.5 346,-476.5 340,-482.5 334,-482.5 334,-482.5 226,-482.5 226,-482.5 220,-482.5 214,-476.5 214,-470.5 214,-470.5 214,-388.5 214,-388.5 214,-382.5 220,-376.5 226,-376.5"/>
<text text-anchor="middle" x="280" y="-467.3" font-family="Times,serif" font-size="14.00">Province</text>
<polyline fill="none" stroke="black" points="214,-459.5 346,-459.5 "/>
<text text-anchor="start" x="222" y="-444.3" font-family="Times,serif" font-size="14.00">id :INTEGER</text>
<text text-anchor="start" x="222" y="-429.3" font-family="Times,serif" font-size="14.00">provincia :varchar</text>
<text text-anchor="start" x="222" y="-414.3" font-family="Times,serif" font-size="14.00">country_id :integer</text>
<text text-anchor="start" x="222" y="-399.3" font-family="Times,serif" font-size="14.00">created_at :datetime</text>
<text text-anchor="start" x="222" y="-384.3" font-family="Times,serif" font-size="14.00">updated_at :datetime</text>
</g>
<!-- Country&#45;&gt;Province -->
<g id="edge1" class="edge"><title>Country&#45;&gt;Province</title>
<path fill="none" stroke="#656639" d="M280,-511.111C280,-505.148 280,-499.03 280,-492.96"/>
<ellipse fill="none" stroke="#656639" cx="280" cy="-515.175" rx="4" ry="4"/>
<polygon fill="#656639" stroke="#656639" points="280,-492.824 284.5,-482.824 280,-487.824 280,-482.824 280,-482.824 280,-482.824 280,-487.824 275.5,-482.824 280,-492.824 280,-492.824"/>
</g>
<!-- Type -->
<g id="node3" class="node"><title>Type</title>
<path fill="none" stroke="black" d="M376,-203.5C376,-203.5 484,-203.5 484,-203.5 490,-203.5 496,-209.5 496,-215.5 496,-215.5 496,-282.5 496,-282.5 496,-288.5 490,-294.5 484,-294.5 484,-294.5 376,-294.5 376,-294.5 370,-294.5 364,-288.5 364,-282.5 364,-282.5 364,-215.5 364,-215.5 364,-209.5 370,-203.5 376,-203.5"/>
<text text-anchor="middle" x="430" y="-279.3" font-family="Times,serif" font-size="14.00">Type</text>
<polyline fill="none" stroke="black" points="364,-271.5 496,-271.5 "/>
<text text-anchor="start" x="372" y="-256.3" font-family="Times,serif" font-size="14.00">id :INTEGER</text>
<text text-anchor="start" x="372" y="-241.3" font-family="Times,serif" font-size="14.00">tipo :varchar</text>
<text text-anchor="start" x="372" y="-226.3" font-family="Times,serif" font-size="14.00">created_at :datetime</text>
<text text-anchor="start" x="372" y="-211.3" font-family="Times,serif" font-size="14.00">updated_at :datetime</text>
</g>
<!-- Phone -->
<g id="node4" class="node"><title>Phone</title>
<path fill="none" stroke="black" d="M301,-0.5C301,-0.5 409,-0.5 409,-0.5 415,-0.5 421,-6.5 421,-12.5 421,-12.5 421,-109.5 421,-109.5 421,-115.5 415,-121.5 409,-121.5 409,-121.5 301,-121.5 301,-121.5 295,-121.5 289,-115.5 289,-109.5 289,-109.5 289,-12.5 289,-12.5 289,-6.5 295,-0.5 301,-0.5"/>
<text text-anchor="middle" x="355" y="-106.3" font-family="Times,serif" font-size="14.00">Phone</text>
<polyline fill="none" stroke="black" points="289,-98.5 421,-98.5 "/>
<text text-anchor="start" x="297" y="-83.3" font-family="Times,serif" font-size="14.00">id :INTEGER</text>
<text text-anchor="start" x="297" y="-68.3" font-family="Times,serif" font-size="14.00">telefono :varchar</text>
<text text-anchor="start" x="297" y="-53.3" font-family="Times,serif" font-size="14.00">type_id :integer</text>
<text text-anchor="start" x="297" y="-38.3" font-family="Times,serif" font-size="14.00">user_id :integer</text>
<text text-anchor="start" x="297" y="-23.3" font-family="Times,serif" font-size="14.00">created_at :datetime</text>
<text text-anchor="start" x="297" y="-8.3" font-family="Times,serif" font-size="14.00">updated_at :datetime</text>
</g>
<!-- Type&#45;&gt;Phone -->
<g id="edge2" class="edge"><title>Type&#45;&gt;Phone</title>
<path fill="none" stroke="#a8c353" d="M408.952,-195.801C400.854,-175.717 391.479,-152.468 382.839,-131.04"/>
<ellipse fill="none" stroke="#a8c353" cx="410.54" cy="-199.739" rx="4.00001" ry="4.00001"/>
<polygon fill="#a8c353" stroke="#a8c353" points="382.797,-130.938 383.231,-119.98 380.928,-126.3 379.058,-121.663 379.058,-121.663 379.058,-121.663 380.928,-126.3 374.884,-123.346 382.797,-130.938 382.797,-130.938"/>
</g>
<!-- User -->
<g id="node5" class="node"><title>User</title>
<path fill="none" stroke="black" d="M226,-158.5C226,-158.5 334,-158.5 334,-158.5 340,-158.5 346,-164.5 346,-170.5 346,-170.5 346,-327.5 346,-327.5 346,-333.5 340,-339.5 334,-339.5 334,-339.5 226,-339.5 226,-339.5 220,-339.5 214,-333.5 214,-327.5 214,-327.5 214,-170.5 214,-170.5 214,-164.5 220,-158.5 226,-158.5"/>
<text text-anchor="middle" x="280" y="-324.3" font-family="Times,serif" font-size="14.00">User</text>
<polyline fill="none" stroke="black" points="214,-316.5 346,-316.5 "/>
<text text-anchor="start" x="222" y="-301.3" font-family="Times,serif" font-size="14.00">id :INTEGER</text>
<text text-anchor="start" x="222" y="-286.3" font-family="Times,serif" font-size="14.00">nombre :varchar</text>
<text text-anchor="start" x="222" y="-271.3" font-family="Times,serif" font-size="14.00">apellido :varchar</text>
<text text-anchor="start" x="222" y="-256.3" font-family="Times,serif" font-size="14.00">email :varchar</text>
<text text-anchor="start" x="222" y="-241.3" font-family="Times,serif" font-size="14.00">activo :boolean</text>
<text text-anchor="start" x="222" y="-226.3" font-family="Times,serif" font-size="14.00">edad :integer</text>
<text text-anchor="start" x="222" y="-211.3" font-family="Times,serif" font-size="14.00">detalles :text</text>
<text text-anchor="start" x="222" y="-196.3" font-family="Times,serif" font-size="14.00">created_at :datetime</text>
<text text-anchor="start" x="222" y="-181.3" font-family="Times,serif" font-size="14.00">updated_at :datetime</text>
<text text-anchor="start" x="222" y="-166.3" font-family="Times,serif" font-size="14.00">province_id :integer</text>
</g>
<!-- User&#45;&gt;Phone -->
<g id="edge3" class="edge"><title>User&#45;&gt;Phone</title>
<path fill="none" stroke="#c63efe" d="M319.242,-150.681C321.928,-144.019 324.602,-137.386 327.209,-130.921"/>
<ellipse fill="none" stroke="#c63efe" cx="317.678" cy="-154.559" rx="4.00001" ry="4.00001"/>
<polygon fill="#c63efe" stroke="#c63efe" points="327.235,-130.857 335.148,-123.266 329.105,-126.22 330.975,-121.583 330.975,-121.583 330.975,-121.583 329.105,-126.22 326.801,-119.9 327.235,-130.857 327.235,-130.857"/>
</g>
<!-- ApplicationRecord -->
<g id="node6" class="node"><title>ApplicationRecord</title>
<ellipse fill="none" stroke="black" cx="444" cy="-565" rx="79.8859" ry="18"/>
<text text-anchor="middle" x="444" y="-561.3" font-family="Times,serif" font-size="14.00">ApplicationRecord</text>
</g>
<!-- Province&#45;&gt;User -->
<g id="edge4" class="edge"><title>Province&#45;&gt;User</title>
<path fill="none" stroke="#d57597" d="M280,-368.134C280,-362.277 280,-356.233 280,-350.121"/>
<ellipse fill="none" stroke="#d57597" cx="280" cy="-372.391" rx="4" ry="4"/>
<polygon fill="#d57597" stroke="#d57597" points="280,-349.789 284.5,-339.789 280,-344.789 280,-339.789 280,-339.789 280,-339.789 280,-344.789 275.5,-339.789 280,-349.789 280,-349.789"/>
</g>
</g>
</svg>
